<svg xmlns="http://www.w3.org/2000/svg" width="42" height="42" fill="none" viewBox="0 0 42 42"><path fill="#222" fill-rule="evenodd" d="M4.32065 12.1958C4.44257 12.0735 4.58741 11.9766 4.74687 11.9104C4.90632 11.8442 5.07727 11.8102 5.2499 11.8102C5.42254 11.8102 5.59349 11.8442 5.75294 11.9104C5.9124 11.9766 6.05724 12.0735 6.17916 12.1958L20.9999 27.0192L35.8207 12.1958C35.9427 12.0737 36.0876 11.9769 36.247 11.9109C36.4064 11.8449 36.5773 11.8109 36.7499 11.8109C36.9225 11.8109 37.0934 11.8449 37.2528 11.9109C37.4123 11.9769 37.5571 12.0737 37.6792 12.1958C37.8012 12.3178 37.898 12.4627 37.964 12.6221C38.0301 12.7816 38.0641 12.9524 38.0641 13.125C38.0641 13.2976 38.0301 13.4685 37.964 13.6279C37.898 13.7874 37.8012 13.9322 37.6792 14.0543L21.9292 29.8043C21.8072 29.9265 21.6624 30.0235 21.5029 30.0896C21.3435 30.1558 21.1725 30.1899 20.9999 30.1899C20.8273 30.1899 20.6563 30.1558 20.4969 30.0896C20.3374 30.0235 20.1926 29.9265 20.0707 29.8043L4.32065 14.0543C4.19843 13.9324 4.10145 13.7875 4.03528 13.6281C3.96912 13.4686 3.93506 13.2977 3.93506 13.125C3.93506 12.9524 3.96912 12.7814 4.03528 12.622C4.10145 12.4625 4.19843 12.3177 4.32065 12.1958Z" clip-rule="evenodd"/></svg>