<svg xmlns="http://www.w3.org/2000/svg" viewBox="0 0 501.89 471.63"><defs><style>.cls-1{font-size:18px;font-family:Roboto-Bold, Roboto;font-weight:700;}.cls-1,.cls-3,.cls-6,.cls-7,.cls-8{fill:#fff;}.cls-10,.cls-2,.cls-9{fill:none;stroke:#fff;stroke-miterlimit:10;stroke-width:2px;}.cls-3{font-size:12px;}.cls-3,.cls-6{font-family:NotoSansCJKjp-Light-83pv-RKSJ-H, Noto Sans CJK JP;}.cls-4{letter-spacing:-0.5em;}.cls-5{letter-spacing:0.25em;}.cls-6{font-size:11px;}.cls-7{font-size:14px;font-family:NotoSansCJKjp-Bold-83pv-RKSJ-H, Noto Sans CJK JP;}.cls-9{stroke-dasharray:0.01 0 0 0;}.cls-10{stroke-dasharray:4.21 2.09 0.01 0 0 0;}</style></defs><g id="レイヤー_2" data-name="レイヤー 2"><g id="レイヤー_1-2" data-name="レイヤー 1"><text class="cls-1" transform="translate(13.14 45.43)">13:00</text><text class="cls-1" transform="translate(13.14 126.54)">14:00</text><text class="cls-1" transform="translate(13.14 207.64)">15:00</text><text class="cls-1" transform="translate(13.14 288.75)">16:00</text><text class="cls-1" transform="translate(13.14 369.85)">17:00</text><line class="cls-2" x1="91.5" x2="91.5" y2="471.63"/><text class="cls-3" transform="translate(148.47 66.39)">子どもたちによる、オンラインでの作品発表会です。作品のこだ<tspan x="0" y="15">わりポイントや工夫点、作品の誕生秘話などが聞けるかもしれま</tspan><tspan x="0" y="30">せん</tspan><tspan class="cls-4" x="24" y="30">。</tspan></text><text class="cls-3" transform="translate(148.47 229.37)">IchigoJa<tspan class="cls-5" x="45.82" y="0">m</tspan><tspan x="59.66" y="0">の開発者である福野泰介氏を特別講師に迎えて、えぞ</tspan><tspan x="0" y="15">プロコン限定ワークショップを行います。zoo</tspan><tspan class="cls-5" x="247.69" y="15">m</tspan><tspan x="261.54" y="15">で繋いでいる作</tspan><tspan x="0" y="30">品応募者の皆様と、みらい館にいる子どもたちを交えたワーク</tspan><tspan x="0" y="45">ショップです</tspan><tspan class="cls-4" x="72" y="45">。</tspan></text><text class="cls-6" transform="translate(148.47 390.61)">応募された作品の中から全国大会へノミネートされる作品の発表を行い<tspan x="0" y="15">ます。各部門の最優秀賞、優秀賞の他にみらい館賞と福野賞といった特</tspan><tspan x="0" y="30">別賞もご用意してあります</tspan><tspan class="cls-4" x="132" y="30">。</tspan></text><text class="cls-7" transform="translate(148.47 43.32)">オープニング・作品発表</text><text class="cls-7" transform="translate(148.47 204.06)">特別ワークショップ</text><text class="cls-7" transform="translate(148.47 368.59)">クロージング・表彰式</text><circle class="cls-8" cx="91.5" cy="37.73" r="5.29"/><line class="cls-8" x1="96.79" y1="37.73" x2="147.09" y2="37.73"/><line class="cls-2" x1="96.79" y1="37.73" x2="98.79" y2="37.73"/><line class="cls-9" x1="100.88" y1="37.73" x2="100.89" y2="37.73"/><line class="cls-10" x1="100.89" y1="37.73" x2="145.09" y2="37.73"/><line class="cls-2" x1="145.09" y1="37.73" x2="147.09" y2="37.73"/><circle class="cls-8" cx="91.5" cy="199.94" r="5.29"/><line class="cls-8" x1="96.79" y1="199.94" x2="147.09" y2="199.94"/><line class="cls-2" x1="96.79" y1="199.94" x2="98.79" y2="199.94"/><line class="cls-9" x1="100.88" y1="199.94" x2="100.89" y2="199.94"/><line class="cls-10" x1="100.89" y1="199.94" x2="145.09" y2="199.94"/><line class="cls-2" x1="145.09" y1="199.94" x2="147.09" y2="199.94"/><circle class="cls-8" cx="91.5" cy="362.15" r="5.29"/><line class="cls-8" x1="96.79" y1="362.15" x2="147.09" y2="362.15"/><line class="cls-2" x1="96.79" y1="362.15" x2="98.79" y2="362.15"/><line class="cls-9" x1="100.88" y1="362.15" x2="100.89" y2="362.15"/><line class="cls-10" x1="100.89" y1="362.15" x2="145.09" y2="362.15"/><line class="cls-2" x1="145.09" y1="362.15" x2="147.09" y2="362.15"/></g></g></svg>